<svg width="25" height="480" viewBox="0 0 25 480" fill="none" xmlns="http://www.w3.org/2000/svg">
<path d="M12.47 27.34C11.9233 27.34 11.41 27.2367 10.93 27.03C10.45 26.83 10.0267 26.55 9.66 26.19C9.3 25.8233 9.01667 25.4 8.81 24.92C8.61 24.44 8.51 23.9267 8.51 23.38C8.51 22.8267 8.61 22.3133 8.81 21.84C9.01667 21.36 9.3 20.94 9.66 20.58C10.0267 20.2133 10.45 19.93 10.93 19.73C11.41 19.5233 11.9233 19.42 12.47 19.42C13.0233 19.42 13.5367 19.5233 14.01 19.73C14.49 19.93 14.91 20.2133 15.27 20.58C15.6367 20.94 15.92 21.36 16.12 21.84C16.3267 22.3133 16.43 22.8267 16.43 23.38C16.43 23.9267 16.3267 24.44 16.12 24.92C15.92 25.4 15.6367 25.8233 15.27 26.19C14.91 26.55 14.49 26.83 14.01 27.03C13.5367 27.2367 13.0233 27.34 12.47 27.34Z" fill="#232323" fill-opacity="0.25"/>
<path d="M12.47 81.34C11.9233 81.34 11.41 81.2367 10.93 81.03C10.45 80.83 10.0267 80.55 9.66 80.19C9.3 79.8233 9.01667 79.4 8.81 78.92C8.61 78.44 8.51 77.9267 8.51 77.38C8.51 76.8267 8.61 76.3133 8.81 75.84C9.01667 75.36 9.3 74.94 9.66 74.58C10.0267 74.2133 10.45 73.93 10.93 73.73C11.41 73.5233 11.9233 73.42 12.47 73.42C13.0233 73.42 13.5367 73.5233 14.01 73.73C14.49 73.93 14.91 74.2133 15.27 74.58C15.6367 74.94 15.92 75.36 16.12 75.84C16.3267 76.3133 16.43 76.8267 16.43 77.38C16.43 77.9267 16.3267 78.44 16.12 78.92C15.92 79.4 15.6367 79.8233 15.27 80.19C14.91 80.55 14.49 80.83 14.01 81.03C13.5367 81.2367 13.0233 81.34 12.47 81.34Z" fill="#232323" fill-opacity="0.25"/>
<path d="M12.47 135.34C11.9233 135.34 11.41 135.237 10.93 135.03C10.45 134.83 10.0267 134.55 9.66 134.19C9.3 133.823 9.01667 133.4 8.81 132.92C8.61 132.44 8.51 131.927 8.51 131.38C8.51 130.827 8.61 130.313 8.81 129.84C9.01667 129.36 9.3 128.94 9.66 128.58C10.0267 128.213 10.45 127.93 10.93 127.73C11.41 127.523 11.9233 127.42 12.47 127.42C13.0233 127.42 13.5367 127.523 14.01 127.73C14.49 127.93 14.91 128.213 15.27 128.58C15.6367 128.94 15.92 129.36 16.12 129.84C16.3267 130.313 16.43 130.827 16.43 131.38C16.43 131.927 16.3267 132.44 16.12 132.92C15.92 133.4 15.6367 133.823 15.27 134.19C14.91 134.55 14.49 134.83 14.01 135.03C13.5367 135.237 13.0233 135.34 12.47 135.34Z" fill="#232323" fill-opacity="0.25"/>
<path d="M12.47 189.34C11.9233 189.34 11.41 189.237 10.93 189.03C10.45 188.83 10.0267 188.55 9.66 188.19C9.3 187.823 9.01667 187.4 8.81 186.92C8.61 186.44 8.51 185.927 8.51 185.38C8.51 184.827 8.61 184.313 8.81 183.84C9.01667 183.36 9.3 182.94 9.66 182.58C10.0267 182.213 10.45 181.93 10.93 181.73C11.41 181.523 11.9233 181.42 12.47 181.42C13.0233 181.42 13.5367 181.523 14.01 181.73C14.49 181.93 14.91 182.213 15.27 182.58C15.6367 182.94 15.92 183.36 16.12 183.84C16.3267 184.313 16.43 184.827 16.43 185.38C16.43 185.927 16.3267 186.44 16.12 186.92C15.92 187.4 15.6367 187.823 15.27 188.19C14.91 188.55 14.49 188.83 14.01 189.03C13.5367 189.237 13.0233 189.34 12.47 189.34Z" fill="#232323" fill-opacity="0.25"/>
<path d="M12.47 243.34C11.9233 243.34 11.41 243.237 10.93 243.03C10.45 242.83 10.0267 242.55 9.66 242.19C9.3 241.823 9.01667 241.4 8.81 240.92C8.61 240.44 8.51 239.927 8.51 239.38C8.51 238.827 8.61 238.313 8.81 237.84C9.01667 237.36 9.3 236.94 9.66 236.58C10.0267 236.213 10.45 235.93 10.93 235.73C11.41 235.523 11.9233 235.42 12.47 235.42C13.0233 235.42 13.5367 235.523 14.01 235.73C14.49 235.93 14.91 236.213 15.27 236.58C15.6367 236.94 15.92 237.36 16.12 237.84C16.3267 238.313 16.43 238.827 16.43 239.38C16.43 239.927 16.3267 240.44 16.12 240.92C15.92 241.4 15.6367 241.823 15.27 242.19C14.91 242.55 14.49 242.83 14.01 243.03C13.5367 243.237 13.0233 243.34 12.47 243.34Z" fill="#232323" fill-opacity="0.25"/>
<path d="M12.47 297.34C11.9233 297.34 11.41 297.237 10.93 297.03C10.45 296.83 10.0267 296.55 9.66 296.19C9.3 295.823 9.01667 295.4 8.81 294.92C8.61 294.44 8.51 293.927 8.51 293.38C8.51 292.827 8.61 292.313 8.81 291.84C9.01667 291.36 9.3 290.94 9.66 290.58C10.0267 290.213 10.45 289.93 10.93 289.73C11.41 289.523 11.9233 289.42 12.47 289.42C13.0233 289.42 13.5367 289.523 14.01 289.73C14.49 289.93 14.91 290.213 15.27 290.58C15.6367 290.94 15.92 291.36 16.12 291.84C16.3267 292.313 16.43 292.827 16.43 293.38C16.43 293.927 16.3267 294.44 16.12 294.92C15.92 295.4 15.6367 295.823 15.27 296.19C14.91 296.55 14.49 296.83 14.01 297.03C13.5367 297.237 13.0233 297.34 12.47 297.34Z" fill="#232323" fill-opacity="0.25"/>
<path d="M12.47 351.34C11.9233 351.34 11.41 351.237 10.93 351.03C10.45 350.83 10.0267 350.55 9.66 350.19C9.3 349.823 9.01667 349.4 8.81 348.92C8.61 348.44 8.51 347.927 8.51 347.38C8.51 346.827 8.61 346.313 8.81 345.84C9.01667 345.36 9.3 344.94 9.66 344.58C10.0267 344.213 10.45 343.93 10.93 343.73C11.41 343.523 11.9233 343.42 12.47 343.42C13.0233 343.42 13.5367 343.523 14.01 343.73C14.49 343.93 14.91 344.213 15.27 344.58C15.6367 344.94 15.92 345.36 16.12 345.84C16.3267 346.313 16.43 346.827 16.43 347.38C16.43 347.927 16.3267 348.44 16.12 348.92C15.92 349.4 15.6367 349.823 15.27 350.19C14.91 350.55 14.49 350.83 14.01 351.03C13.5367 351.237 13.0233 351.34 12.47 351.34Z" fill="#232323" fill-opacity="0.25"/>
<path d="M12.47 405.34C11.9233 405.34 11.41 405.237 10.93 405.03C10.45 404.83 10.0267 404.55 9.66 404.19C9.3 403.823 9.01667 403.4 8.81 402.92C8.61 402.44 8.51 401.927 8.51 401.38C8.51 400.827 8.61 400.313 8.81 399.84C9.01667 399.36 9.3 398.94 9.66 398.58C10.0267 398.213 10.45 397.93 10.93 397.73C11.41 397.523 11.9233 397.42 12.47 397.42C13.0233 397.42 13.5367 397.523 14.01 397.73C14.49 397.93 14.91 398.213 15.27 398.58C15.6367 398.94 15.92 399.36 16.12 399.84C16.3267 400.313 16.43 400.827 16.43 401.38C16.43 401.927 16.3267 402.44 16.12 402.92C15.92 403.4 15.6367 403.823 15.27 404.19C14.91 404.55 14.49 404.83 14.01 405.03C13.5367 405.237 13.0233 405.34 12.47 405.34Z" fill="#232323" fill-opacity="0.25"/>
<path d="M12.47 459.34C11.9233 459.34 11.41 459.237 10.93 459.03C10.45 458.83 10.0267 458.55 9.66 458.19C9.3 457.823 9.01667 457.4 8.81 456.92C8.61 456.44 8.51 455.927 8.51 455.38C8.51 454.827 8.61 454.313 8.81 453.84C9.01667 453.36 9.3 452.94 9.66 452.58C10.0267 452.213 10.45 451.93 10.93 451.73C11.41 451.523 11.9233 451.42 12.47 451.42C13.0233 451.42 13.5367 451.523 14.01 451.73C14.49 451.93 14.91 452.213 15.27 452.58C15.6367 452.94 15.92 453.36 16.12 453.84C16.3267 454.313 16.43 454.827 16.43 455.38C16.43 455.927 16.3267 456.44 16.12 456.92C15.92 457.4 15.6367 457.823 15.27 458.19C14.91 458.55 14.49 458.83 14.01 459.03C13.5367 459.237 13.0233 459.34 12.47 459.34Z" fill="#232323" fill-opacity="0.25"/>
</svg>
