<svg width="40" height="40" viewBox="0 0 40 40" fill="none" xmlns="http://www.w3.org/2000/svg">
<mask id="mask0_283_231" style="mask-type:alpha" maskUnits="userSpaceOnUse" x="0" y="0" width="40" height="40">
<rect width="40" height="40" fill="#D9D9D9"/>
</mask>
<g mask="url(#mask0_283_231)">
<path d="M29.1667 33.3333C28 33.3333 27.0139 32.9305 26.2083 32.125C25.4028 31.3194 25 30.3333 25 29.1667C25 28 25.4028 27.0139 26.2083 26.2083C27.0139 25.4028 28 25 29.1667 25C29.3889 25 29.6389 25.0208 29.9167 25.0625C30.1944 25.1042 30.5 25.1944 30.8333 25.3333V18.3333C30.8333 17.8611 30.9931 17.4653 31.3125 17.1458C31.6319 16.8264 32.0278 16.6667 32.5 16.6667H35C35.4722 16.6667 35.8681 16.8264 36.1875 17.1458C36.5069 17.4653 36.6667 17.8611 36.6667 18.3333C36.6667 18.8055 36.5069 19.2014 36.1875 19.5208C35.8681 19.8403 35.4722 20 35 20H33.3333V29.1667C33.3333 30.3333 32.9306 31.3194 32.125 32.125C31.3194 32.9305 30.3333 33.3333 29.1667 33.3333ZM18.3333 20C16.5 20 14.9306 19.3472 13.625 18.0417C12.3194 16.7361 11.6667 15.1667 11.6667 13.3333C11.6667 11.5 12.3194 9.93055 13.625 8.62499C14.9306 7.31943 16.5 6.66666 18.3333 6.66666C20.1667 6.66666 21.7361 7.31943 23.0417 8.62499C24.3472 9.93055 25 11.5 25 13.3333C25 15.1667 24.3472 16.7361 23.0417 18.0417C21.7361 19.3472 20.1667 20 18.3333 20ZM6.66667 33.3333C6.19444 33.3333 5.79861 33.1736 5.47917 32.8542C5.15972 32.5347 5 32.1389 5 31.6667V28.6667C5 27.6944 5.24306 26.8194 5.72917 26.0417C6.21528 25.2639 6.86111 24.6667 7.66667 24.25C9.38889 23.3889 11.1389 22.743 12.9167 22.3125C14.6944 21.8819 16.5 21.6667 18.3333 21.6667C19.1111 21.6667 19.8819 21.7083 20.6458 21.7917C21.4097 21.875 22.1806 22 22.9583 22.1667C23.4306 22.2778 23.7292 22.5694 23.8542 23.0417C23.9792 23.5139 23.8472 23.9444 23.4583 24.3333C22.875 25.0278 22.4375 25.7847 22.1458 26.6042C21.8542 27.4236 21.7083 28.2778 21.7083 29.1667C21.7083 29.5278 21.7292 29.8819 21.7708 30.2292C21.8125 30.5764 21.8889 30.9305 22 31.2917C22.1389 31.7917 22.0764 32.2569 21.8125 32.6875C21.5486 33.118 21.1806 33.3333 20.7083 33.3333H6.66667Z" fill="#826AFE"/>
</g>
</svg>
