<svg width="40" height="40" viewBox="0 0 40 40" fill="none" xmlns="http://www.w3.org/2000/svg">
<g clip-path="url(#clip0_487_371)">
<mask id="mask0_487_371" style="mask-type:alpha" maskUnits="userSpaceOnUse" x="0" y="0" width="40" height="40">
<rect width="40" height="40" fill="#D9D9D9"/>
</mask>
<g mask="url(#mask0_487_371)">
<path d="M14.75 28.0417L20 24.875L25.25 28.0833L23.875 22.0833L28.5 18.0833L22.4167 17.5417L20 11.875L17.5833 17.5L11.5 18.0417L16.125 22.0833L14.75 28.0417ZM20 28.7917L13.0833 32.9583C12.7778 33.1528 12.4583 33.2361 12.125 33.2083C11.7917 33.1805 11.5 33.0694 11.25 32.875C11 32.6805 10.8056 32.4375 10.6667 32.1458C10.5278 31.8542 10.5 31.5278 10.5833 31.1667L12.4167 23.2917L6.29167 18C6.01389 17.75 5.84028 17.4653 5.77084 17.1458C5.70139 16.8264 5.72223 16.5139 5.83334 16.2083C5.94445 15.9028 6.11112 15.6528 6.33334 15.4583C6.55556 15.2639 6.86112 15.1389 7.25 15.0833L15.3333 14.375L18.4583 6.95832C18.5972 6.62499 18.8125 6.37499 19.1042 6.20832C19.3958 6.04166 19.6944 5.95832 20 5.95832C20.3056 5.95832 20.6042 6.04166 20.8958 6.20832C21.1875 6.37499 21.4028 6.62499 21.5417 6.95832L24.6667 14.375L32.75 15.0833C33.1389 15.1389 33.4445 15.2639 33.6667 15.4583C33.8889 15.6528 34.0556 15.9028 34.1667 16.2083C34.2778 16.5139 34.2986 16.8264 34.2292 17.1458C34.1597 17.4653 33.9861 17.75 33.7083 18L27.5833 23.2917L29.4167 31.1667C29.5 31.5278 29.4722 31.8542 29.3333 32.1458C29.1945 32.4375 29 32.6805 28.75 32.875C28.5 33.0694 28.2083 33.1805 27.875 33.2083C27.5417 33.2361 27.2222 33.1528 26.9167 32.9583L20 28.7917ZM32.0833 9.70832L29.5833 11.1667C29.4167 11.25 29.257 11.243 29.1042 11.1458C28.9514 11.0486 28.9028 10.9028 28.9583 10.7083L29.625 7.95832L27.4167 6.12499C27.2778 5.9861 27.2361 5.84027 27.2917 5.68749C27.3472 5.53471 27.4722 5.44443 27.6667 5.41666L30.5833 5.16666L31.7083 2.54166C31.7639 2.37499 31.8889 2.29166 32.0833 2.29166C32.2778 2.29166 32.4028 2.37499 32.4583 2.54166L33.5833 5.16666L36.5 5.41666C36.6944 5.44443 36.8194 5.53471 36.875 5.68749C36.9306 5.84027 36.8889 5.9861 36.75 6.12499L34.5417 7.95832L35.2083 10.7083C35.2639 10.9028 35.2153 11.0486 35.0625 11.1458C34.9097 11.243 34.75 11.25 34.5833 11.1667L32.0833 9.70832Z" fill="#FFF9F5"/>
</g>
</g>
<defs>
<clipPath id="clip0_487_371">
<rect width="40" height="40" fill="white"/>
</clipPath>
</defs>
</svg>
