<svg width="112" height="80" viewBox="0 0 112 80" fill="none" xmlns="http://www.w3.org/2000/svg">
<g clip-path="url(#clip0_439_411)">
<path d="M34.8903 61.1849C35.3721 62.3584 34.4514 63.5807 33.5306 64.1919C32.303 64.8031 30.4615 64.8031 30.1546 63.8863C27.6992 57.7745 27.6992 51.0516 26.7017 44.7168C26.4194 42.761 26.2322 41.4531 26.2322 41.4531C26.0572 40.2124 26.2322 38.8311 28.5555 38.4858C35.0652 40.3591 31.9961 51.9714 34.4422 57.8907C34.7123 59.8617 34.8903 61.188 34.8903 61.188V61.1849Z" fill="#826AFE"/>
<path d="M76.8734 36.8234C71.5852 36.6859 68.5161 41.5753 69.4368 46.4647C66.3676 44.02 62.0708 45.8536 59.3086 44.02C57.1601 42.7977 61.457 41.8809 62.0708 42.1865C64.5261 42.4921 66.0607 45.2424 68.823 43.4088C69.4368 42.7977 69.4368 41.8809 69.1299 41.2697C66.3676 36.6859 59.9224 37.6027 55.9325 39.7418C54.091 40.9641 52.2495 43.4088 53.1702 45.548C49.4872 39.4362 40.5866 40.6585 36.2898 45.8536C32.9137 50.4374 33.5276 57.1603 38.4382 60.2162C44.2696 63.5777 51.6356 59.9106 53.7841 54.1044C55.0117 57.1603 58.6947 57.7715 61.7639 57.4659C65.4469 56.8547 70.6645 55.6324 70.9714 51.0486C74.0406 56.5491 82.9411 58.0771 86.931 52.5765C88.1587 51.0486 87.5449 48.9094 86.0103 48.2983C85.0895 47.9927 83.248 47.6871 82.9411 48.6038C81.7135 50.4374 80.4858 51.6597 78.6443 51.0486C77.1097 50.4374 74.9613 48.6038 75.8821 47.9927C78.9512 46.4647 83.8619 49.5206 86.6241 46.1591C88.1587 44.3256 86.0103 41.5753 84.5402 39.8854C82.9565 38.1344 80.4981 36.689 76.8734 36.8234ZM45.1014 56.3964C42.333 57.1328 40.78 54.7401 40.427 52.329C40.0741 49.9179 40.8046 47.0728 43.6313 46.3547C46.3659 45.661 47.968 47.8429 48.324 50.2571C48.6862 52.7018 47.836 55.666 45.1014 56.3964ZM62.6171 52.5796C61.457 52.2709 60.2293 53.1877 59.3086 52.2709C58.6947 51.3541 58.0809 50.1318 56.8532 50.1318C55.9325 50.4374 55.0117 50.4374 54.3979 51.3541C54.7048 49.8262 53.7841 48.6038 53.7841 47.3815C56.5463 51.0486 62.0708 47.9927 65.5942 50.7216C65.7108 51.5742 64.9282 52.1853 62.614 52.5796H62.6171ZM79.964 43.7114L75.0227 43.7878C75.1025 42.6143 75.6519 41.0466 77.6315 40.9702C79.5558 40.9366 80.6822 42.2354 80.8019 43.0146C80.8971 43.6197 80.3753 43.7083 79.964 43.7114Z" fill="#826AFE"/>
<path d="M105.816 4.35768C104.741 4.18961 103.707 4.8344 103.394 5.86729C101.789 11.1479 98.0292 15.5392 92.2254 18.922C89.77 20.3522 87.2349 21.4248 84.9054 22.1735C76.189 25.0735 66.6746 22.6288 60.039 16.844C58.4124 15.6492 56.7274 14.2924 54.9473 12.7889C51.9241 10.2739 48.499 7.41968 44.0886 6.71988C40.4639 6.11176 35.498 6.66488 32.4257 10.0355C31.1305 11.4565 30.3847 13.5009 29.6604 15.475C29.289 16.4895 28.6936 18.1214 28.2486 18.6867C27.5887 18.4973 26.1524 17.2871 25.3421 16.6057C22.4018 14.1304 17.9608 10.3931 12.4976 13.8859C12.4854 13.8951 12.47 13.9043 12.4577 13.9134C6.78899 17.718 5.81607 24.1598 5.31272 30.3999C4.77869 36.0197 4.74493 41.7923 5.1961 47.6626C4.37663 49.8567 4.14644 52.4145 4.53316 55.1618C5.58895 62.6365 10.6653 67.6359 18.415 66.551C22.2453 66.0163 24.6884 64.3294 26.1339 62.4073C27.5795 60.4851 28.0184 58.3307 27.8158 56.9097C27.6317 55.611 26.6404 54.6331 24.6485 54.9356C22.4325 55.2779 22.2852 56.1916 22.1103 57.6065C21.9691 58.5844 21.7021 60.8732 17.6017 61.4477C13.5013 62.0222 11.2086 59.1955 10.5211 54.3214C9.88578 49.8109 11.0398 46.1316 15.4164 45.5205C19.3971 44.9643 20.4775 47.1278 20.8335 47.8796C21.2693 48.775 21.6622 49.5848 23.7001 49.3006C25.5263 49.0408 26.4777 48.0324 26.2506 46.4678C26.1002 45.4288 25.1119 43.6564 23.2152 42.2751C21.3184 40.8938 18.5132 39.9037 14.7289 40.4355C12.5866 40.7349 10.7666 41.4256 9.27502 42.431C9.16453 38.4889 9.28422 34.5987 9.64639 30.7789C10.0853 25.3516 10.8157 20.2575 14.8701 17.5224C17.3469 15.9487 19.1946 17.1068 22.5338 19.9182C24.67 21.7151 26.8767 23.5761 29.4916 22.913C29.5561 22.8977 29.6205 22.8763 29.6819 22.855C31.8733 22.0818 32.7818 19.5943 33.7455 16.9632C34.2979 15.4536 34.924 13.7393 35.6453 12.9508C37.539 10.8728 40.8751 10.5795 43.3857 10.9981C45.0062 11.2548 46.5193 11.9699 47.9649 12.8989C49.4105 13.8279 50.7886 14.9769 52.1421 16.1014C61.4539 24.1568 74.0375 30.2685 86.2067 26.2348C88.8217 25.4616 91.676 24.2637 94.4198 22.6624C97.7222 20.7372 100.5 18.4545 102.697 15.8784C101.856 23.3714 100.273 28.8506 98.6277 34.559C98.4711 35.1029 98.3146 35.6469 98.155 36.1969C95.5247 35.161 93.0694 36.6889 91.5348 38.8281C91.8417 37.6057 90.6141 36.6889 89.3864 36.3834C88.1587 36.3834 86.3172 36.6889 86.3172 37.6057C86.3172 43.4119 86.3172 49.8292 89.3864 55.0243C90.0002 56.2466 93.0694 56.2466 93.3763 54.4131C94.604 50.1348 89.3864 41.8839 96.7524 41.5784C95.2178 47.3845 94.2971 53.4963 93.9901 59.6081C88.4656 57.469 81.7135 57.469 76.8028 61.7472C74.0406 64.1919 72.506 68.1646 74.6544 71.526C77.7236 76.1098 83.2481 76.1098 88.1587 75.1931C92.7625 73.9707 97.6731 71.526 97.9801 66.331C98.5939 60.2193 98.287 54.1075 99.7111 47.8979C100.141 45.6977 100.632 43.638 101.163 41.6456C101.685 39.6501 102.243 37.7157 102.808 35.7569C105.051 27.9827 107.375 19.9427 107.648 6.54264C107.669 5.46086 106.887 4.52881 105.813 4.36074L105.816 4.35768Z" fill="#826AFE"/>
<path d="M28.0293 34.1858C28.6104 34.1153 29.2003 34.1625 29.7635 34.3246C32.8572 35.2149 34.7575 37.3385 35.8317 39.6688C36.8209 41.8148 37.1703 44.242 37.3555 46.2807C37.4516 47.3391 37.5115 48.4141 37.5653 49.4115C37.6205 50.4351 37.6692 51.3726 37.7424 52.2767C37.885 54.037 38.0973 55.2602 38.403 56.0831L38.4653 56.2425L38.5163 56.3708C38.6298 56.6724 38.709 56.9858 38.7528 57.3052C38.8882 58.2933 39.0007 59.1199 39.0792 59.6998C39.1069 59.9044 39.1299 60.0784 39.1487 60.2178C39.6745 62.0787 39.1981 63.7826 38.5697 64.9482C37.8907 66.2074 36.8914 67.167 35.9438 67.7961C35.7937 67.8957 35.6375 67.9861 35.4762 68.0664C34.1821 68.7107 32.6558 69.0192 31.2417 68.9363C30.2661 68.8792 27.1873 68.4451 26.0781 65.4006C24.6787 61.8832 24.0144 58.2966 23.5688 54.9554C23.0777 51.2724 22.9112 48.6101 22.4038 45.3878C22.4009 45.3697 22.398 45.3514 22.3954 45.3332C22.254 44.3542 22.1365 43.5372 22.0543 42.9649C22.0132 42.6788 21.981 42.4538 21.959 42.3003C21.948 42.2236 21.9395 42.1646 21.9338 42.1248C21.931 42.105 21.9287 42.0899 21.9272 42.0798C21.9265 42.0747 21.9261 42.0707 21.9257 42.0681C21.9255 42.0669 21.9255 42.0658 21.9254 42.0651L21.9251 42.0646C21.9247 42.0616 21.9243 42.0583 21.9239 42.0553C21.7997 41.1746 21.6304 39.311 22.6807 37.4828C23.8682 35.4159 25.9281 34.4967 27.9133 34.2016L28.0293 34.1858Z" fill="#FEF9F5"/>
<path d="M76.8458 32.4908C81.6597 32.3499 85.2065 34.2752 87.5483 36.744L87.7731 36.9866L87.8285 37.0493C88.574 37.9062 89.842 39.4113 90.6507 41.1356C91.2754 42.4675 92.0119 44.8449 91.0161 47.2235C92.3753 49.6331 92.2397 52.8109 90.4116 55.1751C87.299 59.4132 82.3915 60.7679 78.0728 60.237C75.9461 59.9756 73.8064 59.2437 71.9087 58.0642C71.1984 58.671 70.4351 59.1696 69.6767 59.5712C67.1941 60.886 64.348 61.4286 62.4791 61.7387C62.3855 61.7542 62.2913 61.7666 62.1968 61.776C60.2762 61.9672 57.9136 61.9067 55.6751 61.1442C55.3313 61.0271 54.986 60.8906 54.6429 60.7345C50.1995 65.461 42.8114 67.7423 36.2585 63.9649C36.2161 63.9405 36.1741 63.9153 36.1326 63.8894C28.6552 59.2363 28.2203 49.485 32.7814 43.2921L32.8551 43.1948C32.8801 43.1628 32.9056 43.1312 32.9315 43.0999C35.8668 39.551 40.2997 37.3976 44.7017 37.1367C46.8495 37.0094 49.074 37.3397 51.1211 38.2266C51.8641 37.3892 52.6976 36.683 53.5192 36.1376C53.6327 36.0622 53.7498 35.9922 53.8699 35.9278C56.4021 34.5702 59.7645 33.5503 63.1275 33.655C65.0867 33.7159 67.1892 34.1804 69.0728 35.2796C71.0972 33.5147 73.7688 32.4447 76.8458 32.4908Z" fill="#FEF9F5"/>
<path d="M99.23 4.61258C100.175 1.49932 103.283 -0.423332 106.491 0.078592C106.593 0.0944859 106.693 0.114045 106.792 0.136785C109.862 0.764893 112.06 3.4895 111.998 6.62845V6.63054C111.713 20.5993 109.264 29.0702 106.989 36.9533C106.422 38.9213 105.879 40.8029 105.373 42.7368C105.371 42.7434 105.369 42.75 105.368 42.7565C104.857 44.6722 104.389 46.6359 103.981 48.7248C103.972 48.7707 103.963 48.8167 103.952 48.8623C103.322 51.6133 103.059 54.4095 102.885 57.4009C102.72 60.2531 102.629 63.5363 102.316 66.6846C102.045 70.7435 99.9265 73.6947 97.3366 75.6825C94.8406 77.5982 91.831 78.7011 89.2797 79.3785C89.1743 79.4065 89.0678 79.4307 88.9605 79.4507C83.966 80.3831 75.7404 80.9574 71.0344 73.9289C71.0173 73.9034 71.0006 73.8775 70.984 73.8516C67.2275 67.974 70.2962 61.71 73.9123 58.5095C73.9208 58.5021 73.9293 58.4946 73.9378 58.4872C77.0057 55.8144 80.5378 54.4568 84.0909 54.0281C81.8927 48.3973 81.9668 42.2509 81.9668 37.6057C81.9668 35.7265 82.976 34.4093 83.8557 33.6868C84.6592 33.0267 85.5247 32.6934 86.0937 32.5163C87.2658 32.1516 88.5056 32.0517 89.3865 32.0517L89.5198 32.0538C89.8306 32.0633 90.1396 32.1058 90.4415 32.1809C90.9279 32.302 91.4468 32.4793 91.9665 32.7211C92.867 32.2172 93.8639 31.8308 94.9403 31.641C95.4242 29.9484 95.8895 28.2812 96.3208 26.572C93.3866 28.2521 90.3464 29.5227 87.5165 30.3656C73.1581 35.0891 59.0021 27.7596 49.3314 19.4083C47.9421 18.2539 46.7795 17.2927 45.6056 16.5383C44.44 15.7892 43.5058 15.4032 42.7022 15.2759C42.6905 15.2741 42.6788 15.2722 42.6671 15.2703C41.8415 15.1326 40.9262 15.1259 40.1524 15.2828C39.4623 15.4228 39.1002 15.6438 38.9251 15.8042C38.9187 15.8147 38.911 15.8269 38.9029 15.8412C38.8326 15.9641 38.7362 16.1548 38.6154 16.4285C38.3666 16.9926 38.1205 17.6611 37.8332 18.4461L37.8326 18.4473C37.3873 19.663 36.7855 21.3501 35.9197 22.8091C35.0075 24.3465 33.5446 26.0877 31.1349 26.9378C31.1297 26.9397 31.1243 26.9417 31.1191 26.9435C31.0417 26.9705 30.8296 27.0435 30.5652 27.1097L30.5655 27.1106C30.5537 27.1136 30.5416 27.1161 30.5298 27.119C30.5197 27.1215 30.5095 27.1246 30.4992 27.1271L30.4989 27.1265C27.8423 27.7791 25.5295 27.0842 23.7893 26.1622C22.1568 25.2972 20.7085 24.0535 19.7263 23.2272L19.7248 23.226C18.9104 22.5404 18.2866 22.0408 17.7658 21.6745C17.4747 21.4698 17.2589 21.3382 17.1058 21.2543C16.2111 21.9275 15.5466 22.9185 15.0422 24.4728C14.4693 26.2385 14.2021 28.4172 13.983 31.1266C13.9814 31.1464 13.9795 31.1662 13.9776 31.1859C13.8201 32.8474 13.7112 34.5253 13.6488 36.218C13.7221 36.206 13.7957 36.1943 13.8694 36.1831L14.1242 36.1458C19.0347 35.4566 22.9773 36.7354 25.7834 38.7788C28.3539 40.6507 30.1959 43.3639 30.5562 45.8482H30.5565C30.8226 47.6815 30.4214 49.6893 28.9668 51.285C28.9251 51.3306 28.8827 51.3752 28.8403 51.4192C29.0421 51.532 29.2409 51.6568 29.4355 51.795C31.1229 52.9927 31.9019 54.7398 32.1237 56.3042H32.1234C32.5026 58.9708 31.6804 62.2589 29.6163 65.0036C27.4355 67.9032 23.9284 70.1554 19.0192 70.8408L19.0189 70.8405C14.0239 71.5393 9.52306 70.2863 6.11166 67.3373C2.77628 64.454 0.863769 60.2866 0.225092 55.7649L0.224793 55.7631C-0.194926 52.7814 -0.0375654 49.8289 0.794566 47.11C0.395334 41.3228 0.449719 35.6119 0.978297 30.0278C1.47101 23.9296 2.45855 15.4229 9.99397 10.3433C9.99865 10.34 10.003 10.3368 10.0072 10.334C10.0243 10.3223 10.0385 10.3126 10.0476 10.3066L10.0581 10.2997C10.0524 10.3035 10.0414 10.3108 10.0275 10.3203C10.0669 10.2932 10.1066 10.2666 10.1468 10.2409C14.1554 7.67801 18.0895 7.71749 21.3942 8.952C23.3496 9.68243 25.0547 10.827 26.3855 11.8548C27.0192 10.3176 27.9003 8.55487 29.2041 7.12444C33.6764 2.21785 40.4256 1.72259 44.7729 2.44243C44.7805 2.44362 44.7882 2.4448 44.7957 2.44601C44.8009 2.44687 44.8061 2.44753 44.8113 2.44839L44.811 2.44869C49.8539 3.26041 53.7786 6.20183 56.5949 8.51689L57.7369 9.46469L57.7615 9.48558C59.4978 10.9521 61.1017 12.2417 62.6218 13.3583C62.7193 13.4299 62.8138 13.5056 62.905 13.5851C68.506 18.468 76.4311 20.4258 83.5266 18.065C83.5407 18.0603 83.555 18.0559 83.5691 18.0513C85.6312 17.3886 87.8732 16.4385 90.0285 15.1831C95.1001 12.2267 98.0079 8.63268 99.23 4.61258ZM92.4134 63.6452C87.8356 61.8726 82.9725 62.1397 79.6823 64.9944C78.8452 65.7387 78.2988 66.6322 78.0908 67.4089C77.9073 68.0941 77.9811 68.645 78.306 69.1696C79.7315 71.2465 82.5009 71.8164 87.1931 70.965C89.1783 70.4246 90.8678 69.7089 92.0246 68.8211C93.0966 67.9983 93.573 67.1617 93.6371 66.0767L93.6512 65.9001C93.7174 65.2406 93.7713 64.5882 93.8182 63.9361C93.3429 63.9174 92.8681 63.8213 92.4134 63.6452ZM16.9224 49.7773C16.7699 49.7587 16.4821 49.7457 16.0211 49.8101H16.0208C15.5036 49.8823 15.2888 50.0131 15.2238 50.0587C15.1675 50.0983 15.0942 50.1624 15.0074 50.3413C14.7833 50.8038 14.5683 51.8643 14.8294 53.7189L14.8567 53.9039C15.1457 55.7811 15.6597 56.6512 15.9552 56.9649C16.0725 57.0895 16.1484 57.1236 16.2102 57.1437C16.2862 57.1683 16.518 57.2252 16.9955 57.1583C17.3783 57.1046 17.6378 57.0361 17.8033 56.9807C17.8668 56.4116 18.0478 54.719 19.1268 53.2787C19.2527 53.1108 19.3838 52.9531 19.5198 52.8054C19.413 52.7418 19.3067 52.6742 19.2015 52.6022C17.7055 51.5784 17.0573 50.0585 16.9224 49.7773ZM87.3142 37.7776C87.3052 37.8134 87.2968 37.8494 87.2893 37.8856C87.2974 37.8496 87.3051 37.8135 87.3142 37.7776Z" fill="#FEF9F5"/>
<path d="M34.8903 61.1849C35.3721 62.3584 34.4514 63.5807 33.5306 64.1919C32.303 64.8031 30.4615 64.8031 30.1546 63.8863C27.6992 57.7745 27.6992 51.0516 26.7017 44.7168C26.4194 42.761 26.2322 41.4531 26.2322 41.4531C26.0572 40.2124 26.2322 38.8311 28.5555 38.4858C35.0652 40.3591 31.9961 51.9714 34.4422 57.8907C34.7123 59.8617 34.8903 61.188 34.8903 61.188V61.1849Z" fill="#826AFE"/>
<path d="M76.8734 36.8234C71.5852 36.6859 68.5161 41.5753 69.4368 46.4647C66.3676 44.02 62.0708 45.8536 59.3086 44.02C57.1601 42.7977 61.457 41.8809 62.0708 42.1865C64.5261 42.4921 66.0607 45.2424 68.823 43.4088C69.4368 42.7977 69.4368 41.8809 69.1299 41.2697C66.3676 36.6859 59.9224 37.6027 55.9325 39.7418C54.091 40.9641 52.2495 43.4088 53.1702 45.548C49.4872 39.4362 40.5866 40.6585 36.2898 45.8536C32.9137 50.4374 33.5276 57.1603 38.4382 60.2162C44.2696 63.5777 51.6356 59.9106 53.7841 54.1044C55.0117 57.1603 58.6947 57.7715 61.7639 57.4659C65.4469 56.8547 70.6645 55.6324 70.9714 51.0486C74.0406 56.5491 82.9411 58.0771 86.931 52.5765C88.1587 51.0486 87.5449 48.9094 86.0103 48.2983C85.0895 47.9927 83.248 47.6871 82.9411 48.6038C81.7135 50.4374 80.4858 51.6597 78.6443 51.0486C77.1097 50.4374 74.9613 48.6038 75.8821 47.9927C78.9512 46.4647 83.8619 49.5206 86.6241 46.1591C88.1587 44.3256 86.0103 41.5753 84.5402 39.8854C82.9565 38.1344 80.4981 36.689 76.8734 36.8234ZM45.1014 56.3964C42.333 57.1328 40.78 54.7401 40.427 52.329C40.0741 49.9179 40.8046 47.0728 43.6313 46.3547C46.3659 45.661 47.968 47.8429 48.324 50.2571C48.6862 52.7018 47.836 55.666 45.1014 56.3964ZM62.6171 52.5796C61.457 52.2709 60.2293 53.1877 59.3086 52.2709C58.6947 51.3541 58.0809 50.1318 56.8532 50.1318C55.9325 50.4374 55.0117 50.4374 54.3979 51.3541C54.7048 49.8262 53.7841 48.6038 53.7841 47.3815C56.5463 51.0486 62.0708 47.9927 65.5942 50.7216C65.7108 51.5742 64.9282 52.1853 62.614 52.5796H62.6171ZM79.964 43.7114L75.0227 43.7878C75.1025 42.6143 75.6519 41.0466 77.6315 40.9702C79.5558 40.9366 80.6822 42.2354 80.8019 43.0146C80.8971 43.6197 80.3753 43.7083 79.964 43.7114Z" fill="#826AFE"/>
<path d="M105.816 4.35768C104.741 4.18961 103.707 4.8344 103.394 5.86729C101.789 11.1479 98.0291 15.5392 92.2254 18.922C89.77 20.3522 87.2349 21.4248 84.9054 22.1735C76.189 25.0735 66.6746 22.6288 60.039 16.844C58.4124 15.6492 56.7274 14.2924 54.9473 12.7889C51.9241 10.2739 48.499 7.41968 44.0886 6.71988C40.4639 6.11176 35.498 6.66488 32.4257 10.0355C31.1305 11.4565 30.3847 13.5009 29.6604 15.475C29.289 16.4895 28.6936 18.1214 28.2486 18.6867C27.5887 18.4973 26.1524 17.2871 25.3421 16.6057C22.4018 14.1304 17.9608 10.3931 12.4976 13.8859C12.4854 13.8951 12.47 13.9043 12.4577 13.9134C6.78899 17.718 5.81607 24.1598 5.31272 30.3999C4.77869 36.0197 4.74493 41.7923 5.1961 47.6626C4.37663 49.8567 4.14644 52.4145 4.53316 55.1618C5.58895 62.6365 10.6653 67.6359 18.415 66.551C22.2453 66.0163 24.6884 64.3294 26.1339 62.4073C27.5795 60.4851 28.0184 58.3307 27.8158 56.9097C27.6317 55.611 26.6404 54.6331 24.6485 54.9356C22.4325 55.2779 22.2852 56.1916 22.1103 57.6065C21.9691 58.5844 21.7021 60.8732 17.6017 61.4477C13.5013 62.0222 11.2086 59.1955 10.5211 54.3214C9.88578 49.8109 11.0398 46.1316 15.4164 45.5205C19.3971 44.9643 20.4775 47.1278 20.8335 47.8796C21.2693 48.775 21.6622 49.5848 23.7001 49.3006C25.5263 49.0408 26.4777 48.0324 26.2506 46.4678C26.1002 45.4288 25.1119 43.6564 23.2152 42.2751C21.3184 40.8938 18.5132 39.9037 14.7289 40.4355C12.5866 40.7349 10.7666 41.4256 9.27502 42.431C9.16453 38.4889 9.28422 34.5987 9.64639 30.7789C10.0853 25.3516 10.8157 20.2575 14.8701 17.5224C17.3469 15.9487 19.1946 17.1068 22.5338 19.9182C24.67 21.7151 26.8767 23.5761 29.4916 22.913C29.5561 22.8977 29.6205 22.8763 29.6819 22.855C31.8733 22.0818 32.7818 19.5943 33.7455 16.9632C34.2979 15.4536 34.924 13.7393 35.6453 12.9508C37.539 10.8728 40.8751 10.5795 43.3857 10.9981C45.0062 11.2548 46.5193 11.9699 47.9649 12.8989C49.4105 13.8279 50.7886 14.9769 52.1421 16.1014C61.4539 24.1568 74.0375 30.2685 86.2067 26.2348C88.8217 25.4616 91.676 24.2637 94.4198 22.6624C97.7222 20.7372 100.5 18.4545 102.697 15.8784C101.856 23.3714 100.273 28.8506 98.6276 34.559C98.4711 35.1029 98.3146 35.6469 98.155 36.1969C95.5247 35.161 93.0694 36.6889 91.5348 38.8281C91.8417 37.6057 90.614 36.6889 89.3864 36.3834C88.1587 36.3834 86.3172 36.6889 86.3172 37.6057C86.3172 43.4119 86.3172 49.8292 89.3864 55.0243C90.0002 56.2466 93.0694 56.2466 93.3763 54.4131C94.604 50.1348 89.3864 41.8839 96.7524 41.5784C95.2178 47.3845 94.297 53.4963 93.9901 59.6081C88.4656 57.469 81.7135 57.469 76.8028 61.7472C74.0406 64.1919 72.506 68.1646 74.6544 71.526C77.7236 76.1099 83.248 76.1099 88.1587 75.1931C92.7625 73.9707 97.6731 71.526 97.98 66.331C98.5939 60.2193 98.287 54.1075 99.7111 47.8979C100.141 45.6977 100.632 43.638 101.163 41.6456C101.685 39.6501 102.243 37.7157 102.808 35.7569C105.051 27.9827 107.375 19.9427 107.648 6.54264C107.669 5.46086 106.887 4.52881 105.813 4.36074L105.816 4.35768Z" fill="#826AFE"/>
</g>
<defs>
<clipPath id="clip0_439_411">
<rect width="112" height="80" fill="white"/>
</clipPath>
</defs>
</svg>
