<svg width="24" height="24" viewBox="0 0 24 24" fill="none" xmlns="http://www.w3.org/2000/svg">
<g clip-path="url(#clip0_648_412)">
<g filter="url(#filter0_d_648_412)">
<mask id="mask0_648_412" style="mask-type:alpha" maskUnits="userSpaceOnUse" x="0" y="0" width="24" height="24">
<rect width="24" height="24" fill="#D9D9D9"/>
</mask>
<g mask="url(#mask0_648_412)">
<path d="M4 14C3.71667 14 3.47917 13.9042 3.2875 13.7125C3.09583 13.5208 3 13.2833 3 13C3 12.7167 3.09583 12.4792 3.2875 12.2875C3.47917 12.0958 3.71667 12 4 12H9C9.28333 12 9.52083 12.0958 9.7125 12.2875C9.90417 12.4792 10 12.7167 10 13C10 13.2833 9.90417 13.5208 9.7125 13.7125C9.52083 13.9042 9.28333 14 9 14H4ZM4 10C3.71667 10 3.47917 9.90417 3.2875 9.7125C3.09583 9.52083 3 9.28333 3 9C3 8.71667 3.09583 8.47917 3.2875 8.2875C3.47917 8.09583 3.71667 8 4 8H13C13.2833 8 13.5208 8.09583 13.7125 8.2875C13.9042 8.47917 14 8.71667 14 9C14 9.28333 13.9042 9.52083 13.7125 9.7125C13.5208 9.90417 13.2833 10 13 10H4ZM4 6C3.71667 6 3.47917 5.90417 3.2875 5.7125C3.09583 5.52083 3 5.28333 3 5C3 4.71667 3.09583 4.47917 3.2875 4.2875C3.47917 4.09583 3.71667 4 4 4H13C13.2833 4 13.5208 4.09583 13.7125 4.2875C13.9042 4.47917 14 4.71667 14 5C14 5.28333 13.9042 5.52083 13.7125 5.7125C13.5208 5.90417 13.2833 6 13 6H4ZM12 19V17.35C12 17.2167 12.025 17.0875 12.075 16.9625C12.125 16.8375 12.2 16.725 12.3 16.625L17.525 11.425C17.675 11.275 17.8417 11.1667 18.025 11.1C18.2083 11.0333 18.3917 11 18.575 11C18.775 11 18.9667 11.0375 19.15 11.1125C19.3333 11.1875 19.5 11.3 19.65 11.45L20.575 12.375C20.7083 12.525 20.8125 12.6917 20.8875 12.875C20.9625 13.0583 21 13.2417 21 13.425C21 13.6083 20.9667 13.7958 20.9 13.9875C20.8333 14.1792 20.725 14.35 20.575 14.5L15.375 19.7C15.275 19.8 15.1625 19.875 15.0375 19.925C14.9125 19.975 14.7833 20 14.65 20H13C12.7167 20 12.4792 19.9042 12.2875 19.7125C12.0958 19.5208 12 19.2833 12 19ZM13.5 18.5H14.45L17.475 15.45L17.025 14.975L16.55 14.525L13.5 17.55V18.5ZM17.025 14.975L16.55 14.525L17.475 15.45L17.025 14.975Z" fill="#826AFE"/>
</g>
</g>
</g>
<defs>
<filter id="filter0_d_648_412" x="2" y="3" width="20" height="18" filterUnits="userSpaceOnUse" color-interpolation-filters="sRGB">
<feFlood flood-opacity="0" result="BackgroundImageFix"/>
<feColorMatrix in="SourceAlpha" type="matrix" values="0 0 0 0 0 0 0 0 0 0 0 0 0 0 0 0 0 0 127 0" result="hardAlpha"/>
<feOffset/>
<feGaussianBlur stdDeviation="0.5"/>
<feComposite in2="hardAlpha" operator="out"/>
<feColorMatrix type="matrix" values="0 0 0 0 0.137255 0 0 0 0 0.137255 0 0 0 0 0.137255 0 0 0 0.25 0"/>
<feBlend mode="normal" in2="BackgroundImageFix" result="effect1_dropShadow_648_412"/>
<feBlend mode="normal" in="SourceGraphic" in2="effect1_dropShadow_648_412" result="shape"/>
</filter>
<clipPath id="clip0_648_412">
<rect width="24" height="24" fill="white"/>
</clipPath>
</defs>
</svg>
