<svg width="40" height="40" viewBox="0 0 40 40" fill="none" xmlns="http://www.w3.org/2000/svg">
<g clip-path="url(#clip0_466_582)">
<path d="M11.6667 23.3334H15C15.4722 23.3334 15.8683 23.1734 16.1883 22.8534C16.5083 22.5334 16.6678 22.1378 16.6667 21.6667C16.6656 21.1956 16.5056 20.8 16.1867 20.48C15.8678 20.16 15.4722 20 15 20H11.6667C11.1944 20 10.7989 20.16 10.48 20.48C10.1611 20.8 10.0011 21.1956 10 21.6667C9.99889 22.1378 10.1589 22.5339 10.48 22.855C10.8011 23.1761 11.1967 23.3356 11.6667 23.3334ZM31.6667 20C30.2778 20 29.0972 19.5139 28.125 18.5417C27.1528 17.5695 26.6667 16.3889 26.6667 15C26.6667 13.6111 27.1528 12.4306 28.125 11.4584C29.0972 10.4861 30.2778 10 31.6667 10C31.9722 10 32.2639 10.0278 32.5417 10.0834C32.8194 10.1389 33.0833 10.2084 33.3333 10.2917V3.33335C33.3333 2.86113 33.4933 2.46558 33.8133 2.14669C34.1333 1.8278 34.5289 1.6678 35 1.66669H38.3333C38.8056 1.66669 39.2017 1.82669 39.5217 2.14669C39.8417 2.46669 40.0011 2.86224 40 3.33335C39.9989 3.80446 39.8389 4.20058 39.52 4.52169C39.2011 4.8428 38.8056 5.00224 38.3333 5.00002H36.6667V15C36.6667 16.3889 36.1806 17.5695 35.2083 18.5417C34.2361 19.5139 33.0556 20 31.6667 20ZM11.6667 18.3334H20C20.4722 18.3334 20.8683 18.1734 21.1883 17.8534C21.5083 17.5334 21.6678 17.1378 21.6667 16.6667C21.6656 16.1956 21.5056 15.8 21.1867 15.48C20.8678 15.16 20.4722 15 20 15H11.6667C11.1944 15 10.7989 15.16 10.48 15.48C10.1611 15.8 10.0011 16.1956 10 16.6667C9.99889 17.1378 10.1589 17.5339 10.48 17.855C10.8011 18.1761 11.1967 18.3356 11.6667 18.3334ZM11.6667 13.3334H20C20.4722 13.3334 20.8683 13.1734 21.1883 12.8534C21.5083 12.5334 21.6678 12.1378 21.6667 11.6667C21.6656 11.1956 21.5056 10.8 21.1867 10.48C20.8678 10.16 20.4722 10 20 10H11.6667C11.1944 10 10.7989 10.16 10.48 10.48C10.1611 10.8 10.0011 11.1956 10 11.6667C9.99889 12.1378 10.1589 12.5339 10.48 12.855C10.8011 13.1761 11.1967 13.3356 11.6667 13.3334ZM10 30L6.16667 33.8334C6 34 5.81945 34.125 5.625 34.2084C5.43056 34.2917 5.22222 34.3334 5 34.3334C4.55556 34.3334 4.16667 34.1734 3.83333 33.8534C3.5 33.5334 3.33333 33.1239 3.33333 32.625V6.66669C3.33333 5.75002 3.66 4.96558 4.31333 4.31335C4.96667 3.66113 5.75111 3.33446 6.66667 3.33335H25C25.8611 3.33335 26.6183 3.59724 27.2717 4.12502C27.925 4.6528 28.2511 5.33335 28.25 6.16669C28.25 6.55558 28.16 6.9028 27.98 7.20835C27.8 7.51391 27.5567 7.76391 27.25 7.95835C26.0278 8.70835 25.0694 9.70835 24.375 10.9584C23.6806 12.2084 23.3333 13.5556 23.3333 15C23.3333 16.5 23.7017 17.8889 24.4383 19.1667C25.175 20.4445 26.1956 21.4584 27.5 22.2084C28.1111 22.5695 28.5972 23.0489 28.9583 23.6467C29.3194 24.2445 29.5 24.9039 29.5 25.625C29.5 26.875 29.0622 27.9167 28.1867 28.75C27.3111 29.5834 26.2489 30 25 30H10Z" fill="#FFF9F5"/>
</g>
<defs>
<clipPath id="clip0_466_582">
<rect width="40" height="40" fill="white"/>
</clipPath>
</defs>
</svg>
