<svg width="32" height="32" viewBox="0 0 32 32" fill="none" xmlns="http://www.w3.org/2000/svg">
<g clip-path="url(#clip0_498_446)">
<mask id="mask0_498_446" style="mask-type:alpha" maskUnits="userSpaceOnUse" x="0" y="0" width="32" height="32">
<rect width="32" height="32" fill="#D9D9D9"/>
</mask>
<g mask="url(#mask0_498_446)">
<path d="M12.7375 21.3333C10.3153 21.3333 8.26528 20.4944 6.5875 18.8167C4.90972 17.1389 4.07083 15.0889 4.07083 12.6667C4.07083 10.2444 4.90972 8.19444 6.5875 6.51667C8.26528 4.83889 10.3153 4 12.7375 4C15.1597 4 17.2097 4.83889 18.8875 6.51667C20.5653 8.19444 21.4042 10.2444 21.4042 12.6667C21.4042 13.6444 21.2486 14.5667 20.9375 15.4333C20.6264 16.3 20.2042 17.0667 19.6708 17.7333L27.1375 25.2C27.3819 25.4444 27.5042 25.7556 27.5042 26.1333C27.5042 26.5111 27.3819 26.8222 27.1375 27.0667C26.8931 27.3111 26.5819 27.4333 26.2042 27.4333C25.8264 27.4333 25.5153 27.3111 25.2708 27.0667L17.8042 19.6C17.1375 20.1333 16.3708 20.5556 15.5042 20.8667C14.6375 21.1778 13.7153 21.3333 12.7375 21.3333ZM12.7375 18.6667C14.4042 18.6667 15.8208 18.0833 16.9875 16.9167C18.1542 15.75 18.7375 14.3333 18.7375 12.6667C18.7375 11 18.1542 9.58333 16.9875 8.41667C15.8208 7.25 14.4042 6.66667 12.7375 6.66667C11.0708 6.66667 9.65416 7.25 8.4875 8.41667C7.32083 9.58333 6.7375 11 6.7375 12.6667C6.7375 14.3333 7.32083 15.75 8.4875 16.9167C9.65416 18.0833 11.0708 18.6667 12.7375 18.6667Z" fill="#232323" fill-opacity="0.25"/>
</g>
</g>
<defs>
<clipPath id="clip0_498_446">
<rect width="32" height="32" fill="white"/>
</clipPath>
</defs>
</svg>
